<mxfile host="Electron" agent="Mozilla/5.0 (Windows NT 10.0; Win64; x64) AppleWebKit/537.36 (KHTML, like Gecko) draw.io/24.7.17 Chrome/128.0.6613.36 Electron/32.0.1 Safari/537.36" version="24.7.17">
  <diagram name="Page-1" id="FV9xbgbF45ymVKw93-Yz">
    <mxGraphModel dx="1728" dy="1003" grid="1" gridSize="10" guides="1" tooltips="1" connect="1" arrows="1" fold="1" page="1" pageScale="1" pageWidth="1654" pageHeight="2336" math="0" shadow="0">
      <root>
        <mxCell id="0" />
        <mxCell id="1" parent="0" />
        <mxCell id="tXJmiLIM1t4B9cIG5nSC-1" value="Gardenbro" style="shape=rect;html=1;verticalAlign=top;fontStyle=1;whiteSpace=wrap;align=center;" vertex="1" parent="1">
          <mxGeometry x="360" y="280" width="590" height="510" as="geometry" />
        </mxCell>
        <mxCell id="tXJmiLIM1t4B9cIG5nSC-6" style="edgeStyle=orthogonalEdgeStyle;rounded=0;orthogonalLoop=1;jettySize=auto;html=1;endArrow=none;endFill=0;" edge="1" parent="1" source="tXJmiLIM1t4B9cIG5nSC-2" target="tXJmiLIM1t4B9cIG5nSC-3">
          <mxGeometry relative="1" as="geometry" />
        </mxCell>
        <mxCell id="tXJmiLIM1t4B9cIG5nSC-2" value="Uživatel" style="shape=umlActor;html=1;verticalLabelPosition=bottom;verticalAlign=top;align=center;" vertex="1" parent="1">
          <mxGeometry x="250" y="485" width="30" height="60" as="geometry" />
        </mxCell>
        <mxCell id="tXJmiLIM1t4B9cIG5nSC-7" style="edgeStyle=orthogonalEdgeStyle;rounded=0;orthogonalLoop=1;jettySize=auto;html=1;dashed=1;" edge="1" parent="1" source="tXJmiLIM1t4B9cIG5nSC-3" target="tXJmiLIM1t4B9cIG5nSC-5">
          <mxGeometry relative="1" as="geometry" />
        </mxCell>
        <mxCell id="tXJmiLIM1t4B9cIG5nSC-11" value="include" style="edgeLabel;html=1;align=center;verticalAlign=middle;resizable=0;points=[];" vertex="1" connectable="0" parent="tXJmiLIM1t4B9cIG5nSC-7">
          <mxGeometry x="-0.176" relative="1" as="geometry">
            <mxPoint as="offset" />
          </mxGeometry>
        </mxCell>
        <mxCell id="tXJmiLIM1t4B9cIG5nSC-3" value="Zvolit časové rozmezí" style="ellipse;whiteSpace=wrap;html=1;" vertex="1" parent="1">
          <mxGeometry x="370" y="480" width="140" height="70" as="geometry" />
        </mxCell>
        <mxCell id="tXJmiLIM1t4B9cIG5nSC-5" value="Zvolit typ souboru" style="ellipse;whiteSpace=wrap;html=1;" vertex="1" parent="1">
          <mxGeometry x="585" y="480" width="140" height="70" as="geometry" />
        </mxCell>
      </root>
    </mxGraphModel>
  </diagram>
</mxfile>
